<?xml version="1.0" encoding="utf-8" ?>
<svg baseProfile="full" height="100%" version="1.1" width="100%" xmlns="http://www.w3.org/2000/svg" xmlns:ev="http://www.w3.org/2001/xml-events" xmlns:xlink="http://www.w3.org/1999/xlink"><defs /><polygon points="0.11,0.08 0.08,0.11 0.08,0.12 0.07,0.13 0.07,0.14 0.06,0.15 0.06,0.22 0.07,0.23 0.07,0.25 0.09,0.27 0.09,0.28 0.1,0.29 0.11,0.29 0.14,0.32 0.14,1.17 0.12,1.19 0.11,1.19 0.08,1.22 0.08,1.23 0.07,1.24 0.07,1.25 0.06,1.26 0.06,1.29 0.05,1.3 0.05,1.31 0.06,1.32 0.06,1.35 0.07,1.36 0.07,1.37 0.09,1.3900000000000001 0.09,1.4000000000000001 0.1,1.41 0.11,1.41 0.13,1.43 0.15,1.43 0.16,1.44 0.22,1.44 0.23,1.43 0.25,1.43 0.27,1.41 0.28,1.41 0.3,1.3900000000000001 0.3,1.3800000000000001 0.31,1.37 0.31,1.36 0.32,1.35 0.32,1.32 0.33,1.31 0.33,1.3 0.32,1.29 0.32,1.26 0.31,1.25 0.31,1.24 0.3,1.23 0.3,1.22 0.27,1.19 0.26,1.19 0.24,1.17 0.24,0.43 0.25,0.42 0.26,0.43 0.26,0.44 0.27,0.45 0.27,0.46 0.28,0.47000000000000003 0.28,0.48 0.29,0.49 0.29,0.5 0.3,0.51 0.3,0.52 0.31,0.53 0.31,0.54 0.32,0.55 0.32,0.56 0.33,0.5700000000000001 0.33,0.58 0.34,0.59 0.34,0.6 0.35000000000000003,0.61 0.35000000000000003,0.62 0.36,0.63 0.36,0.64 0.37,0.65 0.37,0.66 0.38,0.67 0.38,0.68 0.39,0.6900000000000001 0.39,0.7000000000000001 0.4,0.71 0.4,0.72 0.41000000000000003,0.73 0.41000000000000003,0.74 0.42,0.75 0.42,0.76 0.43,0.77 0.43,0.78 0.44,0.79 0.44,0.8 0.45,0.81 0.45,0.8200000000000001 0.46,0.8300000000000001 0.46,0.84 0.47000000000000003,0.85 0.47000000000000003,0.86 0.48,0.87 0.48,0.88 0.49,0.89 0.49,0.9 0.5,0.91 0.5,0.92 0.51,0.93 0.51,0.9400000000000001 0.52,0.9500000000000001 0.52,0.96 0.53,0.97 0.53,0.98 0.54,0.99 0.54,1.0 0.55,1.01 0.55,1.02 0.56,1.03 0.56,1.04 0.5700000000000001,1.05 0.5700000000000001,1.06 0.58,1.07 0.58,1.08 0.59,1.09 0.59,1.1 0.6,1.11 0.6,1.12 0.61,1.1300000000000001 0.61,1.1400000000000001 0.62,1.1500000000000001 0.62,1.16 0.63,1.17 0.63,1.18 0.64,1.19 0.64,1.2 0.65,1.21 0.65,1.22 0.63,1.24 0.63,1.25 0.62,1.26 0.62,1.35 0.63,1.36 0.63,1.37 0.68,1.42 0.6900000000000001,1.42 0.7000000000000001,1.43 0.79,1.43 0.8,1.42 0.81,1.42 0.8200000000000001,1.41 0.8300000000000001,1.41 0.86,1.3800000000000001 0.86,1.37 0.87,1.36 0.87,1.34 0.88,1.33 0.88,1.28 0.87,1.27 0.87,1.25 0.86,1.24 0.86,1.23 0.8200000000000001,1.19 0.81,1.19 0.8,1.18 0.8,0.44 0.81,0.43 0.8200000000000001,0.44 0.8200000000000001,0.45 0.8300000000000001,0.46 0.8300000000000001,0.47000000000000003 0.84,0.48 0.84,0.49 0.85,0.5 0.85,0.51 0.86,0.52 0.86,0.53 0.87,0.54 0.87,0.55 0.88,0.56 0.88,0.5700000000000001 0.89,0.58 0.89,0.59 0.9,0.6 0.9,0.61 0.91,0.62 0.91,0.63 0.92,0.64 0.92,0.65 0.93,0.66 0.93,0.67 0.9400000000000001,0.68 0.9400000000000001,0.6900000000000001 0.9500000000000001,0.7000000000000001 0.9500000000000001,0.71 0.96,0.72 0.96,0.73 0.97,0.74 0.97,0.75 0.98,0.76 0.98,0.77 0.99,0.78 0.99,0.79 1.0,0.8 1.0,0.81 1.01,0.8200000000000001 1.01,0.8300000000000001 1.02,0.84 1.02,0.85 1.03,0.86 1.03,0.87 1.04,0.88 1.04,0.89 1.05,0.9 1.05,0.91 1.06,0.92 1.06,0.93 1.07,0.9400000000000001 1.07,0.9500000000000001 1.08,0.96 1.08,0.97 1.09,0.98 1.09,0.99 1.1,1.0 1.1,1.01 1.11,1.02 1.11,1.03 1.12,1.04 1.12,1.05 1.1300000000000001,1.06 1.1300000000000001,1.07 1.1400000000000001,1.08 1.1400000000000001,1.09 1.1500000000000001,1.1 1.1500000000000001,1.11 1.16,1.12 1.16,1.1300000000000001 1.17,1.1400000000000001 1.17,1.1500000000000001 1.18,1.16 1.18,1.17 1.19,1.18 1.19,1.19 1.2,1.2 1.2,1.22 1.19,1.23 1.19,1.24 1.18,1.25 1.18,1.26 1.17,1.27 1.17,1.34 1.18,1.35 1.18,1.36 1.19,1.37 1.19,1.3800000000000001 1.23,1.42 1.24,1.42 1.25,1.43 1.27,1.43 1.28,1.44 1.33,1.44 1.34,1.43 1.36,1.43 1.37,1.42 1.3800000000000001,1.42 1.42,1.3800000000000001 1.42,1.37 1.43,1.36 1.43,1.35 1.44,1.34 1.44,1.27 1.43,1.26 1.43,1.24 1.36,1.17 1.36,0.32 1.3900000000000001,0.29 1.4000000000000001,0.29 1.41,0.28 1.41,0.27 1.43,0.25 1.43,0.23 1.44,0.22 1.44,0.15 1.43,0.14 1.43,0.13 1.42,0.12 1.42,0.11 1.3800000000000001,0.07 1.37,0.07 1.36,0.06 1.33,0.06 1.32,0.05 1.29,0.05 1.28,0.06 1.25,0.06 1.23,0.08 1.22,0.08 1.19,0.11 1.19,0.12 1.18,0.13 1.18,0.15 1.17,0.16 1.17,0.22 1.18,0.23 1.18,0.25 1.2,0.27 1.2,0.28 1.21,0.29 1.22,0.29 1.26,0.33 1.25,0.34 1.25,0.35000000000000003 1.26,0.36 1.26,0.9500000000000001 1.25,0.96 1.25,1.0 1.26,1.01 1.25,1.02 1.25,1.03 1.26,1.04 1.26,1.05 1.25,1.06 1.24,1.06 1.23,1.05 1.23,1.03 1.21,1.01 1.21,1.0 1.2,0.99 1.2,0.98 1.19,0.97 1.19,0.96 1.18,0.9500000000000001 1.18,0.9400000000000001 1.17,0.93 1.17,0.91 1.1500000000000001,0.89 1.1500000000000001,0.88 1.1400000000000001,0.87 1.1400000000000001,0.86 1.1300000000000001,0.85 1.1300000000000001,0.84 1.12,0.8300000000000001 1.12,0.8200000000000001 1.11,0.81 1.11,0.8 1.1,0.79 1.1,0.77 1.08,0.75 1.08,0.73 1.06,0.71 1.06,0.6900000000000001 1.04,0.67 1.04,0.66 1.03,0.65 1.03,0.64 1.02,0.63 1.02,0.62 1.01,0.61 1.01,0.59 0.99,0.5700000000000001 0.99,0.55 0.97,0.53 0.97,0.51 0.9500000000000001,0.49 0.9500000000000001,0.48 0.9400000000000001,0.47000000000000003 0.9400000000000001,0.46 0.93,0.45 0.93,0.43 0.92,0.42 0.92,0.41000000000000003 0.9,0.39 0.9,0.37 0.88,0.35000000000000003 0.88,0.33 0.87,0.32 0.87,0.31 0.85,0.29 0.85,0.28 0.86,0.27 0.86,0.26 0.87,0.25 0.87,0.24 0.88,0.23 0.88,0.15 0.87,0.14 0.87,0.12 0.8200000000000001,0.07 0.81,0.07 0.8,0.06 0.78,0.06 0.77,0.05 0.73,0.05 0.72,0.06 0.7000000000000001,0.06 0.6900000000000001,0.07 0.68,0.07 0.67,0.08 0.66,0.08 0.64,0.1 0.64,0.11 0.63,0.12 0.63,0.13 0.62,0.14 0.62,0.16 0.61,0.17 0.61,0.21 0.62,0.22 0.62,0.24 0.63,0.25 0.63,0.26 0.68,0.31 0.6900000000000001,0.31 0.7000000000000001,0.32 0.7000000000000001,1.06 0.6900000000000001,1.07 0.67,1.05 0.67,1.04 0.66,1.03 0.66,1.02 0.65,1.01 0.65,1.0 0.64,0.99 0.64,0.98 0.63,0.97 0.63,0.96 0.62,0.9500000000000001 0.62,0.9400000000000001 0.61,0.93 0.61,0.92 0.6,0.91 0.6,0.9 0.59,0.89 0.59,0.88 0.58,0.87 0.58,0.86 0.5700000000000001,0.85 0.5700000000000001,0.84 0.56,0.8300000000000001 0.56,0.8200000000000001 0.55,0.81 0.55,0.8 0.54,0.79 0.54,0.78 0.53,0.77 0.53,0.76 0.52,0.75 0.52,0.74 0.51,0.73 0.51,0.72 0.5,0.71 0.5,0.7000000000000001 0.49,0.6900000000000001 0.49,0.68 0.48,0.67 0.48,0.66 0.47000000000000003,0.65 0.47000000000000003,0.64 0.46,0.63 0.46,0.62 0.45,0.61 0.45,0.6 0.44,0.59 0.44,0.58 0.43,0.5700000000000001 0.43,0.56 0.42,0.55 0.42,0.54 0.41000000000000003,0.53 0.41000000000000003,0.52 0.4,0.51 0.4,0.5 0.39,0.49 0.39,0.48 0.38,0.47000000000000003 0.38,0.46 0.37,0.45 0.37,0.44 0.36,0.43 0.36,0.42 0.35000000000000003,0.41000000000000003 0.35000000000000003,0.4 0.34,0.39 0.34,0.38 0.33,0.37 0.33,0.36 0.32,0.35000000000000003 0.32,0.34 0.31,0.33 0.31,0.32 0.3,0.31 0.3,0.3 0.29,0.29 0.29,0.27 0.31,0.25 0.31,0.23 0.32,0.22 0.32,0.15 0.31,0.14 0.31,0.13 0.3,0.12 0.3,0.11 0.27,0.08 0.26,0.08 0.25,0.07 0.24,0.07 0.23,0.06 0.15,0.06 0.14,0.07 0.13,0.07 0.12,0.08" /></svg>