<?xml version="1.0" encoding="utf-8" ?>
<svg baseProfile="full" height="100%" version="1.1" width="100%" xmlns="http://www.w3.org/2000/svg" xmlns:ev="http://www.w3.org/2001/xml-events" xmlns:xlink="http://www.w3.org/1999/xlink"><defs /><polygon points="6.95,6.17 6.65,6.61 6.15,6.99 5.96,7.4 5.59,7.66 5.43,8.13 4.93,8.82 4.61,9.91 4.33,10.26 4.08,13.25 4.33,15.540000000000001 4.64,15.93 4.96,17.06 5.28,17.330000000000002 5.66,18.17 6.09,18.55 6.28,18.990000000000002 6.78,19.29 7.0,19.7 7.43,19.88 7.9,20.330000000000002 8.72,20.68 9.24,21.13 9.36,21.52 9.32,78.33 9.0,78.71000000000001 6.86,80.12 6.11,80.85000000000001 4.76,82.72 3.99,84.63 3.64,87.08 4.0600000000000005,90.14 4.8100000000000005,91.82000000000001 6.24,93.7 8.13,95.25 9.370000000000001,95.89 11.46,96.5 12.58,96.61 14.280000000000001,96.55 16.45,95.96000000000001 17.91,95.23 18.81,94.59 20.57,92.77 21.240000000000002,91.75 21.88,90.38 22.27,88.36 22.37,86.94 21.88,84.09 21.22,82.67 20.47,81.52 19.2,80.16 18.29,79.45 16.97,78.68 16.69,78.34 16.68,30.12 16.78,29.18 17.02,28.51 17.28,28.76 17.62,29.68 17.97,30.02 18.28,31.01 18.69,31.490000000000002 18.93,32.32 19.28,32.68 19.66,33.74 19.95,33.980000000000004 20.27,34.99 20.67,35.43 20.990000000000002,36.43 21.34,36.76 21.61,37.660000000000004 22.01,38.14 22.32,39.09 22.66,39.410000000000004 22.94,40.34 23.3,40.7 23.61,41.660000000000004 23.98,42.06 24.28,43.0 24.67,43.45 24.97,44.39 25.330000000000002,44.76 25.66,45.76 25.98,46.050000000000004 26.27,47.01 26.61,47.34 26.94,48.34 27.3,48.72 27.6,49.65 28.0,50.120000000000005 28.26,50.99 28.650000000000002,51.410000000000004 28.990000000000002,52.410000000000004 29.330000000000002,52.76 29.63,53.72 29.98,54.07 30.330000000000002,55.1 30.63,55.35 30.94,56.33 31.28,56.67 31.650000000000002,57.75 31.990000000000002,58.07 32.33,59.11 32.65,59.4 32.95,60.36 33.28,60.68 33.6,61.65 33.99,62.1 34.32,63.09 34.69,63.480000000000004 34.94,64.34 35.29,64.7 35.660000000000004,65.77 35.980000000000004,66.06 36.28,67.0 36.67,67.45 36.99,68.43 37.28,68.68 37.660000000000004,69.76 38.02,70.15 38.28,71.02 38.62,71.37 38.99,72.43 39.36,72.83 39.61,73.68 39.99,74.09 40.27,75.0 40.63,75.37 40.97,76.39 41.35,76.81 41.6,77.66 41.980000000000004,78.06 42.31,79.07000000000001 42.64,79.39 42.97,80.38 43.34,80.81 43.28,81.36 42.29,82.78 41.93,83.82000000000001 41.6,84.31 41.26,87.7 41.64,90.33 41.96,90.67 42.29,91.71000000000001 42.6,91.94 42.99,92.69 43.660000000000004,93.47 44.61,94.34 45.29,94.69 45.61,95.05 46.5,95.34 46.96,95.7 50.33,96.19 53.44,95.66 53.85,95.33 54.77,95.01 55.2,94.60000000000001 55.69,94.41 55.99,93.99 56.51,93.66 56.71,93.3 57.07,93.09 57.33,92.56 57.68,92.34 58.03,91.42 58.4,91.01 58.64,89.97 59.050000000000004,89.0 59.160000000000004,87.2 59.07,85.62 58.32,83.27 57.94,82.81 57.72,82.22 57.370000000000005,81.96000000000001 57.0,81.34 55.97,80.32000000000001 55.34,79.95 55.160000000000004,79.66 54.14,79.21000000000001 53.9,78.8 53.92,30.26 53.99,29.650000000000002 54.32,29.330000000000002 54.81,30.51 55.78,32.230000000000004 56.07,33.02 67.83,56.34 68.1,57.09 69.16,58.99 69.48,59.85 70.49,61.65 70.81,62.51 71.83,64.34 72.12,65.13 74.49,69.65 75.47,71.83 77.83,76.33 78.10000000000001,77.09 79.82000000000001,80.32000000000001 80.05,80.99 79.94,81.41 78.71000000000001,83.5 78.13,85.27 77.97,86.86 78.15,89.26 78.74,91.04 79.48,92.37 80.81,93.96000000000001 82.33,95.17 83.74,95.91 86.33,96.58 88.71000000000001,96.53 90.98,95.9 92.35000000000001,95.17 93.88,93.95 95.16,92.42 95.92,91.08 96.58,89.02 96.7,86.96000000000001 96.49000000000001,85.02 95.92,83.38 95.22,82.11 93.37,80.04 91.87,79.06 91.06,78.33 91.02,22.31 91.11,21.66 93.7,19.76 95.22,17.98 95.89,16.79 96.55,14.81 96.7,12.870000000000001 96.49000000000001,10.700000000000001 95.91,9.01 95.3,7.92 93.89,6.16 92.07000000000001,4.7700000000000005 90.86,4.16 88.44,3.5500000000000003 86.39,3.52 84.02,4.08 82.65,4.74 81.58,5.46 80.15,6.83 78.76,9.01 78.10000000000001,11.040000000000001 77.97,12.47 78.04,14.3 78.76,16.72 79.42,17.93 80.11,18.85 81.88,20.51 83.57000000000001,21.650000000000002 83.68,22.31 83.66,70.76 82.93,70.35000000000001 82.57000000000001,69.34 57.550000000000004,19.46 57.44,18.86 58.54,17.17 59.19,15.6 59.5,13.01 59.230000000000004,10.3 58.56,8.64 57.89,7.5200000000000005 56.56,6.01 54.88,4.75 53.43,4.0600000000000005 50.44,3.47 48.99,3.56 46.71,4.14 45.45,4.76 44.46,5.44 42.730000000000004,7.18 42.08,8.11 41.35,9.65 40.78,12.11 40.88,14.32 41.44,16.38 42.7,18.56 44.74,20.54 46.49,21.66 46.54,70.34 46.33,71.39 45.99,71.23 45.39,70.51 45.0,69.29 44.64,68.86 43.660000000000004,66.66 43.300000000000004,66.22 43.03,65.39 42.65,64.91 42.34,64.02 41.92,63.45 41.69,62.7 41.300000000000004,62.21 41.0,61.34 40.64,60.9 40.34,60.01 39.93,59.47 39.660000000000004,58.65 39.27,58.160000000000004 39.0,57.32 38.65,56.89 38.33,55.99 37.99,55.6 37.01,53.34 36.61,52.82 35.660000000000004,50.64 35.32,50.25 35.01,49.35 34.58,48.77 34.33,47.980000000000004 33.99,47.58 33.660000000000004,46.65 33.3,46.21 33.01,45.35 32.65,44.89 32.33,43.99 31.98,43.56 31.66,42.65 31.27,42.160000000000004 31.0,41.31 30.59,40.800000000000004 29.68,38.67 29.3,38.2 28.990000000000002,37.31 28.62,36.86 28.34,35.99 27.95,35.49 27.66,34.65 27.28,34.18 26.36,32.05 25.990000000000002,31.59 25.02,29.36 24.64,28.88 24.34,28.0 23.91,27.41 23.68,26.67 23.3,26.2 23.0,25.330000000000002 22.59,24.8 22.330000000000002,23.98 21.98,23.55 21.67,22.67 21.3,22.21 21.02,21.37 20.69,20.97 20.35,20.03 19.98,19.55 19.85,19.05 19.94,18.61 20.330000000000002,18.19 20.67,17.45 21.02,17.12 21.38,15.93 21.66,15.6 21.93,13.07 21.69,10.28 21.39,9.85 21.01,8.66 20.63,8.23 20.41,7.65 19.990000000000002,7.33 19.82,6.95 19.330000000000002,6.57 19.13,6.23 17.42,5.0 16.47,4.68 15.81,4.28 14.34,4.0600000000000005 12.44,4.0 10.31,4.25 8.59,4.99" /></svg>