<?xml version="1.0" encoding="utf-8" ?>
<svg baseProfile="full" height="100%" version="1.1" width="100%" xmlns="http://www.w3.org/2000/svg" xmlns:ev="http://www.w3.org/2001/xml-events" xmlns:xlink="http://www.w3.org/1999/xlink"><defs /><polygon points="6.95,6.17 6.65,6.61 6.15,6.99 5.96,7.4 5.59,7.66 5.43,8.13 4.93,8.82 4.61,9.91 4.33,10.26 4.08,13.25 4.33,15.540000000000001 4.64,15.93 4.96,17.06 5.28,17.330000000000002 5.66,18.17 6.09,18.55 6.28,18.990000000000002 6.78,19.29 7.0,19.7 7.43,19.88 7.9,20.330000000000002 8.72,20.68 9.24,21.13 9.36,21.52 9.32,78.33 9.0,78.71000000000001 6.86,80.12 6.11,80.85000000000001 4.76,82.72 3.99,84.63 3.64,87.08 4.0600000000000005,90.14 4.8100000000000005,91.82000000000001 6.24,93.7 8.13,95.25 9.370000000000001,95.89 11.46,96.5 12.58,96.61 14.280000000000001,96.55 16.45,95.96000000000001 17.91,95.23 18.81,94.59 20.57,92.77 21.240000000000002,91.75 21.88,90.38 22.27,88.36 22.37,86.94 21.88,84.09 21.22,82.67 20.47,81.52 19.2,80.16 18.29,79.45 16.97,78.68 16.69,78.34 16.68,30.12 16.78,29.18 17.02,28.51 17.28,28.76 17.62,29.68 17.97,30.02 18.28,31.01 18.69,31.490000000000002 18.93,32.32 19.28,32.68 19.66,33.74 19.95,33.980000000000004 20.27,34.99 20.67,35.43 20.990000000000002,36.43 21.34,36.76 21.61,37.660000000000004 22.01,38.14 22.32,39.09 22.66,39.410000000000004 22.94,40.34 23.3,40.7 23.61,41.660000000000004 23.98,42.06 24.28,43.0 24.67,43.45 24.97,44.39 25.330000000000002,44.76 25.66,45.76 25.98,46.050000000000004 26.27,47.01 26.61,47.34 26.94,48.34 27.3,48.72 27.6,49.65 28.0,50.120000000000005 28.26,50.99 28.650000000000002,51.410000000000004 28.990000000000002,52.410000000000004 29.330000000000002,52.76 29.63,53.72 29.98,54.07 30.330000000000002,55.1 30.63,55.35 30.94,56.33 31.28,56.67 31.650000000000002,57.75 31.990000000000002,58.07 32.33,59.11 32.65,59.4 32.95,60.36 33.28,60.68 33.6,61.65 33.99,62.1 34.32,63.09 34.69,63.480000000000004 34.94,64.34 35.29,64.7 35.660000000000004,65.77 35.980000000000004,66.06 36.28,67.0 36.67,67.45 36.99,68.43 37.28,68.68 37.660000000000004,69.76 38.02,70.15 38.28,71.02 38.62,71.37 38.99,72.43 39.36,72.83 39.61,73.68 39.99,74.09 40.27,75.0 40.63,75.37 40.97,76.39 41.35,76.81 41.6,77.66 41.980000000000004,78.06 42.31,79.07000000000001 42.64,79.39 42.97,80.38 43.34,80.81 43.28,81.36 42.29,82.78 41.93,83.82000000000001 41.6,84.31 41.26,87.7 41.64,90.33 41.96,90.67 42.29,91.71000000000001 42.6,91.94 42.99,92.69 43.660000000000004,93.47 44.61,94.34 45.29,94.69 45.61,95.05 46.5,95.34 46.96,95.7 50.33,96.19 53.44,95.66 53.85,95.33 54.77,95.01 55.2,94.60000000000001 55.69,94.41 55.99,93.99 56.51,93.66 56.71,93.3 57.07,93.09 57.33,92.56 57.68,92.34 58.03,91.42 58.4,91.01 58.64,89.97 59.050000000000004,89.0 59.160000000000004,87.2 59.07,85.62 58.32,83.27 57.94,82.81 57.72,82.22 57.370000000000005,81.96000000000001 57.0,81.34 55.97,80.32000000000001 55.34,79.95 55.160000000000004,79.66 54.14,79.21000000000001 53.9,78.8 53.92,30.26 53.99,29.650000000000002 54.32,29.330000000000002 54.81,30.51 55.78,32.230000000000004 56.07,33.02 67.83,56.34 68.1,57.09 69.16,58.99 69.48,59.85 70.49,61.65 70.81,62.51 71.83,64.34 72.12,65.13 74.49,69.65 75.47,71.83 77.83,76.33 78.10000000000001,77.09 79.82000000000001,80.32000000000001 80.05,80.99 79.94,81.41 78.71000000000001,83.5 78.13,85.27 77.97,86.86 78.15,89.26 78.74,91.04 79.48,92.37 80.81,93.96000000000001 82.33,95.17 83.74,95.91 86.33,96.58 88.71000000000001,96.53 90.98,95.9 92.35000000000001,95.17 93.88,93.95 95.16,92.42 95.92,91.08 96.58,89.02 96.7,86.96000000000001 96.49000000000001,85.02 95.92,83.38 95.22,82.11 93.37,80.04 91.87,79.06 91.06,78.33 91.02,22.31 91.11,21.66 93.7,19.76 95.22,17.98 95.89,16.79 96.55,14.81 96.7,12.870000000000001 96.49000000000001,10.700000000000001 95.91,9.01 95.3,7.92 93.89,6.16 92.07000000000001,4.7700000000000005 90.86,4.16 88.44,3.5500000000000003 86.39,3.52 84.02,4.08 82.65,4.74 81.58,5.46 80.15,6.83 78.76,9.01 78.10000000000001,11.040000000000001 77.97,12.47 78.04,14.3 78.76,16.72 79.42,17.93 80.11,18.85 81.88,20.51 83.57000000000001,21.650000000000002 83.68,22.31 83.66,70.76 82.93,70.35000000000001 82.57000000000001,69.34 57.550000000000004,19.46 57.44,18.86 58.54,17.17 59.19,15.6 59.5,13.01 59.230000000000004,10.3 58.56,8.64 57.89,7.5200000000000005 56.56,6.01 54.88,4.75 53.43,4.0600000000000005 50.44,3.47 48.99,3.56 46.71,4.14 45.45,4.76 44.46,5.44 42.730000000000004,7.18 42.08,8.11 41.35,9.65 40.78,12.11 40.88,14.32 41.44,16.38 42.7,18.56 44.74,20.54 46.49,21.66 46.54,70.34 46.33,71.39 45.99,71.23 45.39,70.51 45.0,69.29 44.64,68.86 43.660000000000004,66.66 43.300000000000004,66.22 43.03,65.39 42.65,64.91 42.34,64.02 41.92,63.45 41.69,62.7 41.300000000000004,62.21 41.0,61.34 40.64,60.9 40.34,60.01 39.93,59.47 39.660000000000004,58.65 39.27,58.160000000000004 39.0,57.32 38.65,56.89 38.33,55.99 37.99,55.6 37.01,53.34 36.61,52.82 35.660000000000004,50.64 35.32,50.25 35.01,49.35 34.58,48.77 34.33,47.980000000000004 33.99,47.58 33.660000000000004,46.65 33.3,46.21 33.01,45.35 32.65,44.89 32.33,43.99 31.98,43.56 31.66,42.65 31.27,42.160000000000004 31.0,41.31 30.59,40.800000000000004 29.68,38.67 29.3,38.2 28.990000000000002,37.31 28.62,36.86 28.34,35.99 27.95,35.49 27.66,34.65 27.28,34.18 26.36,32.05 25.990000000000002,31.59 25.02,29.36 24.64,28.88 24.34,28.0 23.91,27.41 23.68,26.67 23.3,26.2 23.0,25.330000000000002 22.59,24.8 22.330000000000002,23.98 21.98,23.55 21.67,22.67 21.3,22.21 21.02,21.37 20.69,20.97 20.35,20.03 19.98,19.55 19.85,19.05 19.94,18.61 20.330000000000002,18.19 20.67,17.45 21.02,17.12 21.38,15.93 21.66,15.6 21.93,13.07 21.69,10.28 21.39,9.85 21.01,8.66 20.63,8.23 20.41,7.65 19.990000000000002,7.33 19.82,6.95 19.330000000000002,6.57 19.13,6.23 17.42,5.0 16.47,4.68 15.81,4.28 14.34,4.0600000000000005 12.44,4.0 10.31,4.25 8.59,4.99" /><polygon fill="blue" points="6.29,4.01 6.11,4.15 5.82,4.5600000000000005 5.45,4.8100000000000005 5.15,5.23 4.78,5.48 4.48,5.9 4.11,6.15 3.8200000000000003,6.5600000000000005 3.45,6.8100000000000005 3.33,6.99 3.3000000000000003,7.72 3.12,7.92 2.84,8.09 2.66,8.33 2.66,17.0 2.86,17.25 3.13,17.41 3.31,17.62 3.33,18.34 3.5100000000000002,18.57 3.87,18.81 4.17,19.23 4.54,19.48 4.84,19.900000000000002 5.08,20.04 5.26,20.21 5.33,20.330000000000002 5.36,21.06 5.48,21.21 5.9,21.51 6.07,21.79 6.33,22.0 7.03,22.01 7.26,22.21 7.42,22.48 7.65,22.66 9.0,22.66 9.23,22.84 9.450000000000001,23.18 9.66,23.330000000000002 12.34,23.330000000000002 12.540000000000001,23.48 12.76,23.82 13.18,24.12 13.42,24.48 13.84,24.78 14.09,25.150000000000002 14.51,25.45 14.66,25.650000000000002 14.66,26.330000000000002 14.81,26.54 15.15,26.76 15.33,26.990000000000002 15.33,28.34 15.51,28.57 15.870000000000001,28.810000000000002 16.17,29.23 16.51,29.45 16.66,29.650000000000002 16.66,31.66 16.76,31.82 17.18,32.12 17.330000000000002,32.33 17.330000000000002,34.34 17.51,34.57 17.84,34.78 18.0,35.0 18.0,37.01 18.17,37.230000000000004 18.51,37.45 18.66,37.65 18.66,38.33 18.73,38.45 19.23,38.84 19.48,39.21 19.66,39.33 20.36,39.34 20.54,39.480000000000004 20.84,39.9 21.12,40.07 21.3,40.27 21.330000000000002,41.0 21.48,41.21 21.900000000000002,41.51 22.0,41.68 21.990000000000002,43.660000000000004 22.150000000000002,43.88 22.48,44.09 22.64,44.28 22.66,45.0 22.740000000000002,45.13 23.13,45.410000000000004 23.41,45.800000000000004 23.8,46.08 23.990000000000002,46.31 23.990000000000002,47.660000000000004 24.150000000000002,47.88 24.48,48.09 24.64,48.28 24.66,49.0 24.86,49.25 25.13,49.410000000000004 25.310000000000002,49.620000000000005 25.330000000000002,50.34 25.51,50.57 25.78,50.730000000000004 26.0,51.0 26.01,51.7 26.150000000000002,51.88 26.48,52.09 26.66,52.32 26.67,53.02 26.86,53.25 27.13,53.410000000000004 27.330000000000002,53.660000000000004 27.330000000000002,55.0 27.48,55.21 27.82,55.43 28.0,55.68 27.990000000000002,56.32 28.19,56.58 28.47,56.75 28.63,56.93 28.66,57.660000000000004 28.84,57.9 29.12,58.07 29.3,58.27 29.330000000000002,59.0 29.48,59.21 29.82,59.43 30.0,59.68 29.990000000000002,60.32 30.19,60.58 30.47,60.75 30.740000000000002,61.13 31.13,61.410000000000004 31.41,61.800000000000004 31.8,62.08 31.990000000000002,62.31 31.990000000000002,63.660000000000004 32.15,63.88 32.480000000000004,64.09 32.64,64.28 32.660000000000004,65.0 32.86,65.25 33.13,65.41 33.33,65.66 33.34,66.36 33.51,66.57000000000001 33.84,66.78 34.0,67.0 34.01,67.7 34.15,67.88 34.56,68.17 34.81,68.54 35.1,68.72 35.33,68.99 35.33,69.67 35.52,69.91 35.800000000000004,70.08 35.99,70.31 35.99,70.98 36.17,71.23 36.51,71.45 36.76,71.82000000000001 37.12,72.07000000000001 37.300000000000004,72.27 37.33,73.0 37.480000000000004,73.21000000000001 37.82,73.43 38.0,73.68 37.99,74.32000000000001 38.19,74.58 38.47,74.75 38.63,74.93 38.660000000000004,75.66 38.84,75.9 39.12,76.07000000000001 39.300000000000004,76.27 39.33,77.0 39.480000000000004,77.21000000000001 39.82,77.43 40.0,77.68 39.99,78.32000000000001 40.19,78.58 40.47,78.75 40.660000000000004,78.99 40.660000000000004,83.0 40.47,83.24 40.19,83.41 39.99,83.67 39.99,91.66 40.15,91.88 40.480000000000004,92.09 40.64,92.28 40.67,93.02 40.86,93.25 41.24,93.52 41.52,93.91 41.910000000000004,94.19 42.19,94.58 42.58,94.86 42.86,95.25 43.24,95.52 43.410000000000004,95.8 43.67,96.0 44.38,96.02 44.56,96.17 44.81,96.54 45.230000000000004,96.84 45.4,97.12 45.54,97.26 45.660000000000004,97.33 46.36,97.34 46.54,97.48 46.76,97.82000000000001 47.0,98.0 47.68,98.0 47.910000000000004,98.19 48.08,98.47 48.32,98.66 50.34,98.66 50.57,98.48 50.730000000000004,98.21000000000001 50.96,98.01 52.32,98.0 52.58,97.8 52.75,97.52 52.95,97.35000000000001 53.660000000000004,97.33 53.9,97.15 54.07,96.87 54.27,96.69 55.06,96.63 55.26,96.45 55.43,96.17 55.65,96.0 56.99,96.0 57.230000000000004,95.82000000000001 57.45,95.48 57.82,95.23 58.120000000000005,94.81 58.480000000000004,94.57000000000001 58.78,94.15 59.15,93.9 59.45,93.48 59.82,93.23 60.0,92.98 59.99,90.34 60.08,90.19 60.47,89.91 60.660000000000004,89.67 60.660000000000004,83.65 60.480000000000004,83.42 60.21,83.26 60.01,83.03 60.0,82.33 59.84,82.11 59.51,81.9 59.35,81.71000000000001 59.33,80.99 59.25,80.86 58.86,80.58 58.58,80.19 58.19,79.91 57.910000000000004,79.52 57.52,79.24 57.25,78.86 56.86,78.58 56.47,78.08 56.32,77.99 55.61,77.97 55.43,77.82000000000001 55.21,77.48 55.0,77.33 52.99,77.33 52.76,77.15 52.54,76.81 52.33,76.66 50.95,76.64 50.75,76.47 50.58,76.19 50.19,75.91 49.910000000000004,75.52 49.52,75.24 49.25,74.86 48.86,74.58 48.58,74.19 48.19,73.91 48.0,73.68 47.99,72.98 47.82,72.76 47.480000000000004,72.54 47.33,72.34 47.33,71.66 47.18,71.45 46.84,71.23 46.67,71.02 46.660000000000004,70.32000000000001 46.47,70.08 46.19,69.91 46.0,69.68 45.97,68.94 45.82,68.76 45.480000000000004,68.54 45.33,68.34 45.33,66.33 45.230000000000004,66.17 44.81,65.87 44.660000000000004,65.66 44.660000000000004,64.32000000000001 44.47,64.08 44.19,63.910000000000004 44.0,63.68 44.0,62.33 43.84,62.11 43.51,61.9 43.33,61.67 43.33,60.33 43.230000000000004,60.17 42.81,59.870000000000005 42.660000000000004,59.660000000000004 42.660000000000004,58.32 42.47,58.08 42.32,57.99 41.65,57.99 41.51,57.9 41.35,57.71 41.33,56.99 41.13,56.74 40.86,56.58 40.68,56.370000000000005 40.660000000000004,55.65 40.480000000000004,55.42 40.21,55.26 39.99,54.99 39.980000000000004,54.29 39.84,54.11 39.51,53.9 39.33,53.67 39.32,52.97 39.13,52.74 38.86,52.58 38.660000000000004,52.33 38.660000000000004,50.99 38.51,50.78 38.17,50.56 37.99,50.31 38.0,49.67 37.800000000000004,49.410000000000004 37.52,49.24 37.36,49.06 37.300000000000004,48.27 37.15,48.09 36.78,47.84 36.480000000000004,47.42 36.21,47.26 36.07,47.12 35.99,46.99 36.0,46.33 35.79,46.07 35.51,45.9 35.21,45.480000000000004 34.84,45.230000000000004 34.67,45.02 34.660000000000004,44.32 34.47,44.08 34.19,43.910000000000004 33.99,43.65 34.0,42.33 33.84,42.11 33.51,41.9 33.35,41.71 33.33,40.99 33.13,40.74 32.86,40.58 32.68,40.37 32.660000000000004,39.65 32.480000000000004,39.42 32.21,39.26 32.01,39.03 32.0,38.33 31.84,38.11 31.51,37.9 31.35,37.71 31.330000000000002,36.99 31.13,36.74 30.86,36.58 30.580000000000002,36.19 30.19,35.910000000000004 30.0,35.68 29.990000000000002,34.980000000000004 29.82,34.76 29.48,34.54 29.330000000000002,34.34 29.330000000000002,33.660000000000004 29.26,33.54 29.12,33.4 28.84,33.230000000000004 28.66,33.0 28.66,31.650000000000002 28.48,31.42 28.21,31.26 28.01,31.03 27.98,30.29 27.84,30.11 27.51,29.900000000000002 27.21,29.48 26.84,29.23 26.66,29.0 26.66,27.650000000000002 26.48,27.42 26.21,27.26 26.01,27.03 26.0,26.330000000000002 25.84,26.11 25.51,25.900000000000002 25.35,25.71 25.32,24.97 25.13,24.740000000000002 24.75,24.47 24.47,24.080000000000002 24.080000000000002,23.8 23.990000000000002,23.650000000000002 24.0,23.01 23.82,22.76 23.48,22.54 23.23,22.17 22.81,21.87 22.66,21.66 22.66,17.66 22.86,17.41 23.13,17.25 23.330000000000002,17.0 23.330000000000002,9.66 23.18,9.450000000000001 22.84,9.23 22.67,9.02 22.66,8.32 22.47,8.08 22.19,7.91 22.0,7.68 21.97,6.94 21.82,6.76 21.45,6.51 21.150000000000002,6.09 20.78,5.84 20.48,5.42 20.12,5.18 19.82,4.76 19.45,4.51 19.150000000000002,4.09 18.78,3.84 18.48,3.42 18.34,3.33 17.62,3.31 17.41,3.13 17.25,2.86 17.0,2.66 9.66,2.66 9.450000000000001,2.81 9.23,3.15 9.0,3.33 7.65,3.33 7.42,3.5100000000000002 7.26,3.7800000000000002 7.03,3.98" /></svg>